<svg width="80" height="80" viewBox="0 0 80 80" fill="none" xmlns="http://www.w3.org/2000/svg">
<rect width="80" height="80" rx="11" fill="#E5C641"/>
<path opacity="0.4" d="M36.4859 47.2563H24.4307C22.905 47.2563 21.6665 48.4731 21.6665 49.9721C21.6665 51.4691 22.905 52.6879 24.4307 52.6879H36.4859C38.0116 52.6879 39.2501 51.4691 39.2501 49.9721C39.2501 48.4731 38.0116 47.2563 36.4859 47.2563" fill="white"/>
<path opacity="0.4" d="M58.3335 29.6942C58.3335 28.1973 57.095 26.9805 55.5713 26.9805H43.5162C41.9905 26.9805 40.752 28.1973 40.752 29.6942C40.752 31.1932 41.9905 32.41 43.5162 32.41H55.5713C57.095 32.41 58.3335 31.1932 58.3335 29.6942" fill="white"/>
<path d="M34.2757 29.694C34.2757 33.1163 31.4544 35.8901 27.9711 35.8901C24.4898 35.8901 21.6665 33.1163 21.6665 29.694C21.6665 26.2738 24.4898 23.5 27.9711 23.5C31.4544 23.5 34.2757 26.2738 34.2757 29.694" fill="white"/>
<path d="M58.3333 49.8982C58.3333 53.3184 55.512 56.0922 52.0287 56.0922C48.5474 56.0922 45.7241 53.3184 45.7241 49.8982C45.7241 46.476 48.5474 43.7021 52.0287 43.7021C55.512 43.7021 58.3333 46.476 58.3333 49.8982" fill="white"/>
</svg>
