<svg width="80" height="80" viewBox="0 0 80 80" fill="none" xmlns="http://www.w3.org/2000/svg">
<rect width="80" height="80" rx="11" fill="#555555"/>
<path d="M40.1584 58.3336C39.9314 58.3354 39.7044 58.2814 39.5013 58.1754L32.8993 54.7596C31.0241 53.787 29.5586 52.6976 28.4143 51.4283C25.9097 48.6526 24.5181 45.0894 24.4941 41.3931L24.4165 29.2276C24.4092 27.8235 25.3136 26.5633 26.6683 26.0905L38.7908 21.8621C39.5106 21.6068 40.3134 21.6014 41.0462 21.8495L53.2148 25.9323C54.5769 26.3871 55.4979 27.6384 55.5053 29.0406L55.5828 41.2152C55.6068 44.906 54.2613 48.4854 51.7973 51.2899C50.6641 52.5771 49.2115 53.6827 47.3566 54.6715L40.8155 58.1682C40.6106 58.276 40.3854 58.3318 40.1584 58.3336" fill="white"/>
<path d="M38.752 44.2547C38.3977 44.2583 38.0433 44.1289 37.7701 43.8664L34.2578 40.4866C33.7133 39.9635 33.7078 39.1113 34.2449 38.581C34.7838 38.0506 35.6587 38.0452 36.2031 38.5684L38.7317 40.999L44.9074 34.9117C45.4445 34.3814 46.3212 34.3778 46.8657 34.9009C47.4083 35.4241 47.4138 36.2762 46.8767 36.8066L39.7284 43.8538C39.4589 44.1199 39.1064 44.2529 38.752 44.2547" fill="black"/>
</svg>
