<svg width="736" height="212" viewBox="0 0 736 212" fill="none" xmlns="http://www.w3.org/2000/svg">
<line x1="56" y1="80.0005" x2="690" y2="80.0004" stroke="#99B7FF" stroke-width="2" stroke-dasharray="7 7"/>
<circle cx="534" cy="81" r="46" fill="white"/>
<path d="M553.977 63.4379C553.895 62.8448 553.468 62.3569 552.891 62.1966L534.403 57.055C534.14 56.9817 533.861 56.9817 533.597 57.055L515.109 62.1966C514.532 62.3569 514.106 62.8446 514.023 63.4379C513.916 64.209 511.469 82.4278 517.744 91.4911C524.011 100.544 533.257 102.863 533.647 102.958C533.763 102.986 533.882 103 534 103C534.119 103 534.237 102.986 534.353 102.958C534.744 102.863 543.989 100.544 550.256 91.4911C556.531 82.428 554.085 64.2092 553.977 63.4379ZM545.923 74.0742L533.312 86.685C533.018 86.9785 532.634 87.1254 532.249 87.1254C531.864 87.1254 531.48 86.9787 531.186 86.685L523.389 78.8879C523.107 78.6061 522.949 78.2236 522.949 77.825C522.949 77.4263 523.107 77.0439 523.389 76.7621L524.937 75.2139C525.524 74.627 526.476 74.6268 527.063 75.2139L532.249 80.4L542.249 70.4C542.531 70.118 542.913 69.9597 543.312 69.9597C543.71 69.9597 544.093 70.118 544.375 70.4L545.923 71.9482C546.51 72.5353 546.51 73.4871 545.923 74.0742Z" fill="#47D7AC"/>
<g filter="url(#filter0_d_156_36)">
<circle cx="212" cy="81" r="56" fill="#47D7AC"/>
</g>
<path d="M210.138 69.8L198.931 64.3125V76.7L210.138 81.6873V69.8Z" fill="white"/>
<path d="M184.735 100.241L195.207 104.898V93.01L184 87.5225V99.11C184 99.5991 184.288 100.042 184.735 100.241V100.241Z" fill="white"/>
<path d="M210.138 87.5215L198.92 93.0102V104.9L210.138 99.9181V87.5215Z" fill="white"/>
<path d="M207.606 84.6262L197.079 79.9448L186.533 84.6279L197.064 89.7844L207.606 84.6262Z" fill="white"/>
<path d="M240 87.7246L228.772 93.028V104.899L239.147 100.292C239.666 100.062 240 99.5473 240 98.9796V87.7246Z" fill="white"/>
<path d="M222.512 61.6212L213.026 57.33C212.361 57.0291 211.6 57.024 210.93 57.316L201.495 61.4333L212.009 66.5819L222.512 61.6212Z" fill="white"/>
<path d="M237.467 84.8146L226.922 79.9492L216.385 84.6284L226.93 89.7918L237.467 84.8146Z" fill="white"/>
<path d="M213.861 99.9186L225.059 104.898V93.0101L213.854 87.5234L213.861 99.9186Z" fill="white"/>
<path d="M225.079 76.7038V64.5151L213.852 69.8184V81.6897L218.817 79.4848L225.079 76.7038Z" fill="white"/>
<circle cx="46" cy="81" r="46" fill="white"/>
<path d="M41.957 70.9238V77.9103C41.957 78.6539 42.5624 79.258 43.3047 79.258H50.043V71.1721H43.3047C42.83 71.1721 42.3806 71.0749 41.957 70.9238Z" fill="#48DCA8"/>
<path d="M41.957 67.1289C41.957 67.8725 42.5624 68.4766 43.3047 68.4766H50.043V65.7812H43.3047C42.5624 65.7812 41.957 66.3854 41.957 67.1289Z" fill="#48DCA8"/>
<path d="M56.7812 87.3438C63.4695 87.3438 68.9102 81.9031 68.9102 75.2148C68.9102 69.5162 64.8462 64.5468 59.3423 63.3583C56.8733 58.2573 51.7144 55 46 55C40.2856 55 35.1267 58.2573 32.6577 63.3583C27.1538 64.5468 23.0898 69.5162 23.0898 75.2148C23.0898 81.9031 28.5305 87.3438 35.2188 87.3438H44.6523V93.1623C43.5106 93.5695 42.6124 94.4676 42.2053 95.6094H30.8377C30.2795 94.0441 28.7976 92.9141 27.043 92.9141C24.8136 92.9141 23 94.7276 23 96.957C23 99.1864 24.8136 101 27.043 101C28.7976 101 30.2795 99.8699 30.8377 98.3047H42.2053C42.7635 99.8699 44.2454 101 46 101C47.7546 101 49.2365 99.8699 49.7947 98.3047H61.1623C61.7205 99.8699 63.2024 101 64.957 101C67.1864 101 69 99.1864 69 96.957C69 94.7276 67.1864 92.9141 64.957 92.9141C63.2024 92.9141 61.7205 94.0441 61.1623 95.6094H49.7947C49.3876 94.4676 48.4894 93.5695 47.3477 93.1623V87.3438H56.7812ZM39.2617 77.9102V67.1289C39.2617 64.8995 41.0753 63.0859 43.3047 63.0859H52.7383V81.9531H43.3047C41.0753 81.9531 39.2617 80.1395 39.2617 77.9102Z" fill="#48DCA8"/>
<circle cx="378" cy="81" r="46" fill="white"/>
<circle cx="378" cy="80" r="23" fill="#47D7AC"/>
<circle cx="378" cy="80.0002" r="12.234" fill="#47D7AC"/>
<circle cx="690" cy="81" r="46" fill="white"/>
<path d="M680.365 83.2681C681.658 83.2681 682.907 83.1846 684.089 83.0292V70.0689C682.907 69.9136 681.658 69.8301 680.365 69.8301C672.984 69.8301 667 72.5439 667 75.8917V77.2063C667 80.5541 672.984 83.2681 680.365 83.2681Z" fill="#47D7AC"/>
<path d="M680.365 90.0353C681.658 90.0353 682.907 89.9518 684.089 89.7966V85.9977C682.907 86.153 681.658 86.2376 680.365 86.2376C673.922 86.2376 668.544 84.1697 667.281 81.4175C667.097 81.8184 667 82.2335 667 82.659V83.9736C667 87.3214 672.984 90.0353 680.365 90.0353Z" fill="#47D7AC"/>
<path d="M684.089 93.0605V92.7652C682.907 92.9206 681.658 93.0052 680.365 93.0052C673.922 93.0052 668.544 90.9373 667.281 88.1851C667.097 88.5858 667 89.0009 667 89.4265V90.7411C667 94.089 672.984 96.8028 680.365 96.8028C681.841 96.8028 683.261 96.694 684.588 96.4936C684.259 95.8204 684.089 95.1105 684.089 94.375V93.0605Z" fill="#47D7AC"/>
<path d="M699.635 59.5635C692.254 59.5635 686.271 62.2773 686.271 65.6251V66.9397C686.271 70.2876 692.254 73.0014 699.635 73.0014C707.016 73.0014 713 70.2876 713 66.9397V65.6251C713 62.2773 707.016 59.5635 699.635 59.5635Z" fill="#47D7AC"/>
<path d="M699.635 75.971C693.192 75.971 687.815 73.9032 686.552 71.1509C686.368 71.5517 686.271 71.9668 686.271 72.3924V73.707C686.271 77.0548 692.254 79.7687 699.635 79.7687C707.016 79.7687 713 77.0548 713 73.707V72.3924C713 71.9668 712.903 71.5517 712.719 71.1509C711.456 73.9032 706.078 75.971 699.635 75.971Z" fill="#47D7AC"/>
<path d="M699.635 82.7386C693.192 82.7386 687.815 80.6707 686.552 77.9185C686.368 78.3192 686.271 78.7343 686.271 79.16V80.4746C686.271 83.8225 692.254 86.5364 699.635 86.5364C707.016 86.5364 713 83.8225 713 80.4746V79.16C713 78.7343 712.903 78.3192 712.719 77.9185C711.456 80.6708 706.078 82.7386 699.635 82.7386Z" fill="#47D7AC"/>
<path d="M699.635 89.8714C693.192 89.8714 687.815 87.8035 686.552 85.0513C686.368 85.4522 686.271 85.8672 686.271 86.2927V87.6074C686.271 90.9552 692.254 93.6691 699.635 93.6691C707.016 93.6691 713 90.9552 713 87.6074V86.2927C713 85.8672 712.903 85.4519 712.719 85.0513C711.456 87.8034 706.078 89.8714 699.635 89.8714Z" fill="#47D7AC"/>
<path d="M699.635 96.639C693.192 96.639 687.815 94.5712 686.552 91.819C686.368 92.2199 686.271 92.6351 686.271 93.0604V94.375C686.271 97.7228 692.254 100.437 699.635 100.437C707.016 100.437 713 97.7228 713 94.375V93.0603C713 92.6347 712.903 92.2195 712.719 91.8188C711.456 94.5711 706.078 96.639 699.635 96.639Z" fill="#47D7AC"/>
<defs>
<filter id="filter0_d_156_36" x="106" y="0" width="212" height="212" filterUnits="userSpaceOnUse" color-interpolation-filters="sRGB">
<feFlood flood-opacity="0" result="BackgroundImageFix"/>
<feColorMatrix in="SourceAlpha" type="matrix" values="0 0 0 0 0 0 0 0 0 0 0 0 0 0 0 0 0 0 127 0" result="hardAlpha"/>
<feOffset dy="25"/>
<feGaussianBlur stdDeviation="25"/>
<feColorMatrix type="matrix" values="0 0 0 0 0.4875 0 0 0 0 0.778378 0 0 0 0 1 0 0 0 0.26 0"/>
<feBlend mode="normal" in2="BackgroundImageFix" result="effect1_dropShadow_156_36"/>
<feBlend mode="normal" in="SourceGraphic" in2="effect1_dropShadow_156_36" result="shape"/>
</filter>
</defs>
</svg>
