<svg width="48" height="308" viewBox="0 0 48 308" fill="none" xmlns="http://www.w3.org/2000/svg">
<line x1="24" y1="1" x2="24" y2="283" stroke="#679FEF" stroke-width="2" stroke-linecap="round" stroke-dasharray="6 6"/>
<circle cx="24" cy="284" r="24" fill="white"/>
<path d="M29.9184 286.32C29.6594 286.571 29.5404 286.934 29.5994 287.29L30.4884 292.21C30.5634 292.627 30.3874 293.049 30.0384 293.29C29.6964 293.54 29.2414 293.57 28.8684 293.37L24.4394 291.06C24.2854 290.978 24.1144 290.934 23.9394 290.929H23.6684C23.5744 290.943 23.4824 290.973 23.3984 291.019L18.9684 293.34C18.7494 293.45 18.5014 293.489 18.2584 293.45C17.6664 293.338 17.2714 292.774 17.3684 292.179L18.2584 287.259C18.3174 286.9 18.1984 286.535 17.9394 286.28L14.3284 282.78C14.0264 282.487 13.9214 282.047 14.0594 281.65C14.1934 281.254 14.5354 280.965 14.9484 280.9L19.9184 280.179C20.2964 280.14 20.6284 279.91 20.7984 279.57L22.9884 275.08C23.0404 274.98 23.1074 274.888 23.1884 274.81L23.2784 274.74C23.3254 274.688 23.3794 274.645 23.4394 274.61L23.5484 274.57L23.7184 274.5H24.1394C24.5154 274.539 24.8464 274.764 25.0194 275.1L27.2384 279.57C27.3984 279.897 27.7094 280.124 28.0684 280.179L33.0384 280.9C33.4584 280.96 33.8094 281.25 33.9484 281.65C34.0794 282.051 33.9664 282.491 33.6584 282.78L29.9184 286.32Z" fill="#47D7AC"/>
<circle cx="24" cy="24" r="24" fill="white"/>
<path fill-rule="evenodd" clip-rule="evenodd" d="M28.1583 20.2329C28.1583 22.5825 26.2851 24.4666 23.949 24.4666C21.6129 24.4666 19.7397 22.5825 19.7397 20.2329C19.7397 17.8823 21.6129 16 23.949 16C26.2851 16 28.1583 17.8823 28.1583 20.2329ZM23.949 32C20.5178 32 17.5881 31.456 17.5881 29.2802C17.5881 27.1034 20.499 26.5396 23.949 26.5396C27.3802 26.5396 30.31 27.0836 30.31 29.2604C30.31 31.4362 27.399 32 23.949 32ZM29.9571 20.3092C29.9571 21.507 29.5998 22.6229 28.973 23.5505C28.9086 23.646 28.9659 23.7748 29.0796 23.7946C29.2363 23.8216 29.3984 23.8369 29.5631 23.8414C31.2062 23.8846 32.6809 22.821 33.0883 21.2197C33.6918 18.8412 31.9198 16.7059 29.6634 16.7059C29.4181 16.7059 29.1835 16.732 28.9551 16.7788C28.9238 16.786 28.8907 16.8005 28.8728 16.8284C28.8513 16.8626 28.8674 16.9085 28.8889 16.9383C29.5667 17.8938 29.9571 19.0592 29.9571 20.3092ZM32.6782 25.5126C33.7823 25.7296 34.5084 26.1727 34.8093 26.8166C35.0636 27.3453 35.0636 27.9586 34.8093 28.4864C34.349 29.4851 32.8654 29.8058 32.2887 29.8886C32.1696 29.9066 32.0738 29.8031 32.0864 29.6833C32.3809 26.9157 30.0377 25.6035 29.4315 25.3018C29.4055 25.2883 29.4002 25.2676 29.4028 25.255C29.4046 25.246 29.4154 25.2316 29.4351 25.2289C30.7468 25.2046 32.1571 25.3847 32.6782 25.5126ZM18.4371 23.8413C18.6019 23.8368 18.763 23.8224 18.9206 23.7945C19.0343 23.7747 19.0916 23.6459 19.0272 23.5504C18.4004 22.6228 18.0431 21.5069 18.0431 20.3091C18.0431 19.0591 18.4335 17.8937 19.1113 16.9382C19.1328 16.9084 19.1481 16.8625 19.1275 16.8283C19.1096 16.8013 19.0755 16.786 19.0451 16.7788C18.8159 16.7319 18.5813 16.7058 18.3359 16.7058C16.0795 16.7058 14.3075 18.8411 14.9119 21.2196C15.3193 22.8209 16.794 23.8845 18.4371 23.8413ZM18.5969 25.2545C18.5996 25.268 18.5943 25.2878 18.5692 25.3022C17.9621 25.6039 15.6188 26.9161 15.9134 29.6827C15.926 29.8034 15.831 29.9061 15.712 29.889C15.1353 29.8061 13.6516 29.4855 13.1914 28.4867C12.9362 27.9581 12.9362 27.3457 13.1914 26.817C13.4922 26.1731 14.2175 25.73 15.3216 25.512C15.8436 25.385 17.2529 25.2049 18.5656 25.2292C18.5853 25.2319 18.5951 25.2464 18.5969 25.2545Z" fill="#47D7AC"/>
<circle cx="24" cy="152" r="24" fill="white"/>
<g clip-path="url(#clip0_147_68)">
<path d="M24.3933 141.013C26.0757 141.252 27.5505 143.008 28.4785 145.601C27.1369 145.902 25.7679 146.063 24.3933 146.082V141.013Z" fill="#47D7AC"/>
<path d="M27.081 141.425C27.1804 141.454 27.2795 141.483 27.3778 141.515C27.4607 141.542 27.5425 141.571 27.6243 141.599C27.7211 141.633 27.8174 141.667 27.9134 141.703C27.9952 141.735 28.0762 141.768 28.1574 141.801C28.2511 141.84 28.3446 141.879 28.4372 141.918C28.518 141.954 28.5982 141.991 28.6785 142.029C28.7693 142.071 28.8597 142.115 28.9494 142.16C29.0281 142.2 29.1066 142.241 29.1853 142.283C29.2734 142.331 29.361 142.379 29.4479 142.428C29.5267 142.473 29.6025 142.518 29.6791 142.564C29.7643 142.616 29.8492 142.669 29.9335 142.721C30.0089 142.769 30.0842 142.818 30.1585 142.868C30.2414 142.924 30.3232 142.982 30.4046 143.04C30.4777 143.093 30.5505 143.145 30.6219 143.197C30.7006 143.258 30.7813 143.321 30.8602 143.384C30.9302 143.44 31.0001 143.495 31.069 143.553C31.1476 143.618 31.2228 143.685 31.299 143.753C31.3658 143.812 31.433 143.871 31.4983 143.932C31.5734 144.002 31.6465 144.075 31.7197 144.147C31.783 144.209 31.8471 144.271 31.9092 144.335C31.9207 144.347 31.9316 144.36 31.9435 144.372C31.0859 144.815 30.1827 145.163 29.2494 145.409C28.7641 143.861 27.9004 142.458 26.7366 141.328C26.7684 141.337 26.8003 141.343 26.8322 141.352C26.9163 141.375 26.9988 141.401 27.081 141.425V141.425Z" fill="#47D7AC"/>
<path d="M35.0001 151.598H30.2858C30.2679 149.757 30.0009 147.927 29.4919 146.158C30.5298 145.881 31.5314 145.482 32.4759 144.971C34.0268 146.84 34.9145 149.17 35.0001 151.598V151.598Z" fill="#47D7AC"/>
<path d="M24.3933 152.384H29.4995C29.4795 154.16 29.219 155.925 28.7254 157.63C27.3036 157.306 25.8514 157.133 24.3933 157.114V152.384Z" fill="#47D7AC"/>
<path d="M24.3933 162.969V157.9C25.7679 157.919 27.1369 158.08 28.4785 158.381C27.5505 160.974 26.0757 162.73 24.3933 162.969V162.969Z" fill="#47D7AC"/>
<path d="M24.3933 146.868C25.8514 146.849 27.3036 146.676 28.7254 146.351C29.219 148.057 29.4795 149.822 29.4995 151.598H24.3933V146.868Z" fill="#47D7AC"/>
<path d="M32.4759 159.011C31.5314 158.5 30.5298 158.101 29.4919 157.824C30.0009 156.055 30.2679 154.225 30.2858 152.384H35.0001C34.9143 154.811 34.0266 157.142 32.4759 159.011V159.011Z" fill="#47D7AC"/>
<path d="M31.9446 159.608C31.9331 159.619 31.9222 159.632 31.9109 159.644C31.8487 159.708 31.7842 159.77 31.7208 159.832C31.6478 159.904 31.5751 159.977 31.4998 160.047C31.4347 160.108 31.3674 160.165 31.3005 160.226C31.2243 160.293 31.1481 160.361 31.0698 160.427C31.0018 160.484 30.9321 160.539 30.863 160.594C30.7843 160.658 30.7037 160.721 30.6227 160.782C30.5516 160.836 30.4796 160.887 30.4073 160.939C30.3251 160.998 30.2425 161.057 30.1588 161.114C30.0853 161.163 30.0106 161.211 29.9359 161.259C29.8509 161.314 29.766 161.367 29.6794 161.419C29.6036 161.465 29.527 161.509 29.4502 161.553C29.3623 161.603 29.2742 161.652 29.1853 161.7C29.1066 161.739 29.028 161.782 28.9493 161.821C28.8589 161.867 28.7677 161.911 28.6742 161.954C28.5955 161.992 28.5156 162.028 28.4346 162.064C28.3415 162.105 28.2474 162.142 28.1536 162.181C28.0725 162.214 27.9919 162.247 27.9101 162.278C27.8147 162.315 27.718 162.349 27.6212 162.382C27.5394 162.411 27.4576 162.44 27.3747 162.466C27.2764 162.498 27.1781 162.527 27.0771 162.557C26.9953 162.581 26.9132 162.605 26.8304 162.627C26.7987 162.635 26.7665 162.642 26.7346 162.65C27.8984 161.52 28.762 160.118 29.2475 158.57C30.1817 158.816 31.0863 159.164 31.9446 159.608V159.608Z" fill="#47D7AC"/>
<path d="M13 152.384H17.7143C17.7322 154.225 17.9992 156.055 18.508 157.824C17.4703 158.101 16.4687 158.499 15.5242 159.011C13.9734 157.142 13.0856 154.811 13 152.384Z" fill="#47D7AC"/>
<path d="M23.6069 141.013V146.082C22.2323 146.063 20.8633 145.902 19.5217 145.601C20.4496 143.008 21.9246 141.252 23.6069 141.013Z" fill="#47D7AC"/>
<path d="M23.6069 151.598H18.5007C18.5207 149.822 18.781 148.057 19.2748 146.351C20.6966 146.676 22.1486 146.849 23.6069 146.868V151.598Z" fill="#47D7AC"/>
<path d="M23.6069 162.969C21.9246 162.73 20.4496 160.974 19.5217 158.381C20.8633 158.08 22.2323 157.919 23.6069 157.9V162.969Z" fill="#47D7AC"/>
<path d="M23.6069 157.114C22.1488 157.133 20.6966 157.306 19.2748 157.63C18.781 155.925 18.5207 154.16 18.5007 152.384H23.6069V157.114Z" fill="#47D7AC"/>
<path d="M21.2624 162.651C21.2306 162.643 21.1987 162.636 21.1668 162.628C21.0835 162.605 21.0013 162.581 20.9184 162.557C20.8197 162.528 20.7218 162.499 20.6227 162.467C20.5392 162.44 20.4571 162.411 20.3749 162.383C20.2787 162.349 20.1823 162.315 20.0871 162.279C20.005 162.248 19.9239 162.215 19.8425 162.181C19.749 162.142 19.6554 162.103 19.563 162.064C19.482 162.028 19.4019 161.991 19.3217 161.953C19.2309 161.911 19.1405 161.867 19.0508 161.822C18.9721 161.782 18.8934 161.74 18.8149 161.699C18.7267 161.651 18.6394 161.603 18.5526 161.554C18.4739 161.51 18.3965 161.464 18.3207 161.418C18.2353 161.367 18.1508 161.314 18.0667 161.261C17.9911 161.213 17.916 161.164 17.8417 161.114C17.7588 161.058 17.677 161 17.5956 160.941C17.5224 160.889 17.4497 160.837 17.3781 160.784C17.2976 160.724 17.2208 160.661 17.1398 160.598C17.0699 160.542 16.9995 160.486 16.9311 160.429C16.8524 160.364 16.7777 160.297 16.7019 160.229C16.6347 160.17 16.5669 160.111 16.5013 160.049C16.4266 159.98 16.3538 159.907 16.2809 159.835C16.2175 159.773 16.153 159.711 16.0908 159.647C16.0795 159.635 16.0685 159.622 16.0566 159.61C16.914 159.167 17.8175 158.819 18.7507 158.573C19.2361 160.12 20.0992 161.521 21.2624 162.651V162.651Z" fill="#47D7AC"/>
<path d="M16.2789 144.149C16.3521 144.077 16.4248 144.005 16.4999 143.935C16.5652 143.874 16.6324 143.817 16.6994 143.756C16.7756 143.688 16.8518 143.621 16.9301 143.555C16.9981 143.498 17.0674 143.443 17.1369 143.388C17.2156 143.324 17.2941 143.261 17.3775 143.199C17.4483 143.146 17.5203 143.095 17.5923 143.042C17.6745 142.983 17.7574 142.924 17.8411 142.868C17.9146 142.818 17.9893 142.77 18.064 142.722C18.149 142.668 18.2339 142.614 18.3205 142.562C18.3963 142.516 18.4729 142.472 18.5497 142.428C18.6376 142.378 18.7258 142.329 18.8146 142.281C18.8932 142.242 18.9719 142.199 19.0506 142.16C19.141 142.114 19.2322 142.07 19.3257 142.027C19.4044 141.99 19.4843 141.953 19.5653 141.918C19.6584 141.876 19.7523 141.839 19.8464 141.8C19.9274 141.767 20.008 141.734 20.0898 141.703C20.1852 141.666 20.282 141.632 20.3787 141.599C20.4605 141.57 20.5423 141.541 20.6252 141.515C20.7235 141.483 20.8218 141.454 20.9228 141.425C21.0046 141.401 21.0868 141.376 21.1693 141.354C21.2012 141.346 21.2334 141.339 21.2653 141.331C20.1015 142.461 19.238 143.863 18.7524 145.411C17.8192 145.165 16.9157 144.817 16.0583 144.374C16.0699 144.362 16.0808 144.349 16.0923 144.337C16.1513 144.274 16.2148 144.212 16.2789 144.149V144.149Z" fill="#47D7AC"/>
<path d="M15.5242 144.971C16.4687 145.482 17.4703 145.881 18.508 146.158C17.9992 147.927 17.7322 149.757 17.7143 151.598H13C13.0858 149.17 13.9734 146.84 15.5242 144.971V144.971Z" fill="#47D7AC"/>
</g>
<defs>
<clipPath id="clip0_147_68">
<rect width="22" height="22" fill="white" transform="matrix(1 0 0 -1 13 163)"/>
</clipPath>
</defs>
</svg>
